<svg width="650" height="649" xmlns="http://www.w3.org/2000/svg" xmlns:xlink="http://www.w3.org/1999/xlink" xml:space="preserve" overflow="hidden"><defs><clipPath id="clip0"><rect x="1875" y="913" width="650" height="649"/></clipPath></defs><g clip-path="url(#clip0)" transform="translate(-1875 -913)"><path d="M2178.33 913 2221.67 913 2221.67 999.53 2265 999.529C2408.59 999.528 2525 1115.76 2525 1259.13 2525 1327.1 2498.82 1388.99 2456.02 1435.25L2481.02 1535.12C2482.87 1542.49 2480.7 1550.29 2475.32 1555.66 2469.94 1561.04 2462.13 1563.2 2454.75 1561.35L2281.85 1518.19C2276.28 1518.55 2270.66 1518.73 2265 1518.73L2135 1518.73C1991.41 1518.73 1875 1402.5 1875 1259.13 1875 1115.76 1991.4 999.531 2135 999.53L2178.33 999.53 2178.33 913ZM2200 1086.07C2140.17 1086.07 2091.67 1134.5 2091.67 1194.24 2091.67 1253.98 2140.17 1302.4 2200 1302.4 2259.83 1302.4 2308.33 1253.98 2308.33 1194.24 2308.33 1134.5 2259.83 1086.07 2200 1086.07ZM2105.22 1355.74 2078.11 1389.49C2111.49 1416.21 2153.91 1432.21 2200 1432.21 2246.09 1432.21 2288.5 1416.21 2321.88 1389.49L2294.78 1355.74C2268.81 1376.52 2235.89 1388.94 2200 1388.94 2164.11 1388.94 2131.19 1376.52 2105.22 1355.74Z" fill="#262E37" fill-rule="evenodd"/><path d="M2200 1129C2235.9 1129 2265 1158.1 2265 1194 2265 1229.9 2235.9 1259 2200 1259 2164.1 1259 2135 1229.9 2135 1194 2135 1158.1 2164.1 1129 2200 1129Z" fill="#262E37" fill-rule="evenodd"/><path d="M2200.5 1086.5C2260.15 1086.5 2308.5 1134.85 2308.5 1194.5 2308.5 1254.15 2260.15 1302.5 2200.5 1302.5 2140.85 1302.5 2092.5 1254.15 2092.5 1194.5 2092.5 1134.85 2140.85 1086.5 2200.5 1086.5ZM2200.5 1129.7C2164.71 1129.7 2135.7 1158.71 2135.7 1194.5 2135.7 1230.29 2164.71 1259.3 2200.5 1259.3 2236.29 1259.3 2265.3 1230.29 2265.3 1194.5 2265.3 1158.71 2236.29 1129.7 2200.5 1129.7Z" stroke="#038DE8" stroke-width="4.58333" stroke-miterlimit="8" fill="#038DE8" fill-rule="evenodd"/><path d="M2105.63 1356.5C2131.62 1377.16 2164.58 1389.5 2200.5 1389.5 2236.42 1389.5 2269.38 1377.16 2295.37 1356.5L2322.5 1390.05C2289.09 1416.6 2246.64 1432.5 2200.5 1432.5 2154.36 1432.5 2111.91 1416.6 2078.5 1390.05L2105.63 1356.5Z" stroke="#FD3F51" stroke-width="4.58333" stroke-miterlimit="8" fill="#FD3F51" fill-rule="evenodd"/></g></svg>